<mxfile host="app.diagrams.net" modified="2024-05-13T09:12:46.706Z" agent="Mozilla/5.0 (Windows NT 10.0; Win64; x64) AppleWebKit/537.36 (KHTML, like Gecko) Chrome/122.0.0.0 YaBrowser/24.4.0.0 Safari/537.36" etag="xIl8RCqOW9DzzV6VgSbB" version="24.3.1" type="device">
  <diagram name="Страница — 1" id="I7zyhPxQFOPzgMbdYHbi">
    <mxGraphModel dx="514" dy="331" grid="1" gridSize="10" guides="1" tooltips="1" connect="1" arrows="1" fold="1" page="1" pageScale="1" pageWidth="827" pageHeight="1169" math="0" shadow="0">
      <root>
        <mxCell id="0" />
        <mxCell id="1" parent="0" />
        <mxCell id="LDK5cGbLw9mPKGdKuX0d-9" value="GameHistory&lt;div&gt;&lt;br&gt;&lt;/div&gt;" style="swimlane;fontStyle=1;align=center;verticalAlign=top;childLayout=stackLayout;horizontal=1;startSize=26;horizontalStack=0;resizeParent=1;resizeParentMax=0;resizeLast=0;collapsible=1;marginBottom=0;whiteSpace=wrap;html=1;" parent="1" vertex="1">
          <mxGeometry x="442.5" y="555" width="205" height="56" as="geometry" />
        </mxCell>
        <mxCell id="3ByuoKEnoOBLCz33jOy8-4" value="+ History: Memento[*] {readonly}" style="text;html=1;align=left;verticalAlign=middle;resizable=0;points=[];autosize=1;strokeColor=none;fillColor=none;" vertex="1" parent="LDK5cGbLw9mPKGdKuX0d-9">
          <mxGeometry y="26" width="205" height="30" as="geometry" />
        </mxCell>
        <mxCell id="LDK5cGbLw9mPKGdKuX0d-13" value="Memento" style="swimlane;fontStyle=1;align=center;verticalAlign=top;childLayout=stackLayout;horizontal=1;startSize=26;horizontalStack=0;resizeParent=1;resizeParentMax=0;resizeLast=0;collapsible=1;marginBottom=0;whiteSpace=wrap;html=1;" parent="1" vertex="1">
          <mxGeometry x="710" y="535" width="160" height="70" as="geometry" />
        </mxCell>
        <mxCell id="LDK5cGbLw9mPKGdKuX0d-14" value="scores : int&lt;div&gt;mines : int[*][*]&lt;/div&gt;" style="text;strokeColor=none;fillColor=none;align=left;verticalAlign=top;spacingLeft=4;spacingRight=4;overflow=hidden;rotatable=0;points=[[0,0.5],[1,0.5]];portConstraint=eastwest;whiteSpace=wrap;html=1;" parent="LDK5cGbLw9mPKGdKuX0d-13" vertex="1">
          <mxGeometry y="26" width="160" height="44" as="geometry" />
        </mxCell>
        <mxCell id="LDK5cGbLw9mPKGdKuX0d-19" value="" style="endArrow=open;endFill=1;endSize=12;html=1;rounded=0;exitX=1;exitY=0.5;exitDx=0;exitDy=0;entryX=0;entryY=0.5;entryDx=0;entryDy=0;" parent="1" source="LDK5cGbLw9mPKGdKuX0d-9" target="LDK5cGbLw9mPKGdKuX0d-14" edge="1">
          <mxGeometry width="160" relative="1" as="geometry">
            <mxPoint x="630" y="583" as="sourcePoint" />
            <mxPoint x="760" y="680" as="targetPoint" />
          </mxGeometry>
        </mxCell>
        <mxCell id="LDK5cGbLw9mPKGdKuX0d-20" value="Play" style="swimlane;fontStyle=1;align=center;verticalAlign=top;childLayout=stackLayout;horizontal=1;startSize=26;horizontalStack=0;resizeParent=1;resizeParentMax=0;resizeLast=0;collapsible=1;marginBottom=0;whiteSpace=wrap;html=1;" parent="1" vertex="1">
          <mxGeometry x="465" y="690" width="160" height="130" as="geometry" />
        </mxCell>
        <mxCell id="LDK5cGbLw9mPKGdKuX0d-21" value="+ field: type" style="text;strokeColor=none;fillColor=none;align=left;verticalAlign=top;spacingLeft=4;spacingRight=4;overflow=hidden;rotatable=0;points=[[0,0.5],[1,0.5]];portConstraint=eastwest;whiteSpace=wrap;html=1;" parent="LDK5cGbLw9mPKGdKuX0d-20" vertex="1">
          <mxGeometry y="26" width="160" height="26" as="geometry" />
        </mxCell>
        <mxCell id="LDK5cGbLw9mPKGdKuX0d-22" value="" style="line;strokeWidth=1;fillColor=none;align=left;verticalAlign=middle;spacingTop=-1;spacingLeft=3;spacingRight=3;rotatable=0;labelPosition=right;points=[];portConstraint=eastwest;strokeColor=inherit;" parent="LDK5cGbLw9mPKGdKuX0d-20" vertex="1">
          <mxGeometry y="52" width="160" height="8" as="geometry" />
        </mxCell>
        <mxCell id="LDK5cGbLw9mPKGdKuX0d-23" value="DopMines(): int&lt;div&gt;GiveScores(): int&lt;br&gt;&lt;/div&gt;&lt;div&gt;&lt;span style=&quot;text-wrap: nowrap; text-align: center;&quot;&gt;SaveState(): Memento&lt;/span&gt;&lt;div style=&quot;text-wrap: nowrap; text-align: center;&quot;&gt;RestoreState: Memento&lt;/div&gt;&lt;/div&gt;&lt;div style=&quot;text-align: center;&quot;&gt;&lt;br&gt;&lt;/div&gt;" style="text;strokeColor=none;fillColor=none;align=left;verticalAlign=top;spacingLeft=4;spacingRight=4;overflow=hidden;rotatable=0;points=[[0,0.5],[1,0.5]];portConstraint=eastwest;whiteSpace=wrap;html=1;" parent="LDK5cGbLw9mPKGdKuX0d-20" vertex="1">
          <mxGeometry y="60" width="160" height="70" as="geometry" />
        </mxCell>
        <mxCell id="LDK5cGbLw9mPKGdKuX0d-24" value="" style="endArrow=open;endFill=1;endSize=12;html=1;rounded=0;exitX=0.5;exitY=1;exitDx=0;exitDy=0;entryX=0.5;entryY=0;entryDx=0;entryDy=0;" parent="1" source="LDK5cGbLw9mPKGdKuX0d-9" target="LDK5cGbLw9mPKGdKuX0d-20" edge="1">
          <mxGeometry width="160" relative="1" as="geometry">
            <mxPoint x="544.72" y="613.6800000000001" as="sourcePoint" />
            <mxPoint x="720" y="592" as="targetPoint" />
          </mxGeometry>
        </mxCell>
      </root>
    </mxGraphModel>
  </diagram>
</mxfile>
